HIERARCHY
ROOT Hips
{
	OFFSET 0.000000 0.000000 0.000000
	CHANNELS 6 Xposition Yposition Zposition Zrotation Yrotation Xrotation 
	JOINT LHipJoint
	{
		OFFSET 0.000000 0.000000 0.000000
		CHANNELS 3 Zrotation Yrotation Xrotation
		JOINT LeftUpLeg
		{
			OFFSET 1.363060 -1.794630 0.839290
			CHANNELS 3 Zrotation Yrotation Xrotation
			JOINT LeftLeg
			{
				OFFSET 2.448110 -6.726130 0.000000
				CHANNELS 3 Zrotation Yrotation Xrotation
				JOINT LeftFoot
				{
					OFFSET 2.562200 -7.039590 0.000000
					CHANNELS 3 Zrotation Yrotation Xrotation
					JOINT LeftToeBase
					{
						OFFSET 0.157640 -0.433110 2.322550
						CHANNELS 3 Zrotation Yrotation Xrotation
						End Site
						{
							OFFSET 0.000000 0.000000 0.000000
						}
					}
				}
			}
		}
	}
	JOINT RHipJoint
	{
		OFFSET 0.000000 0.000000 0.000000
		CHANNELS 3 Zrotation Yrotation Xrotation
		JOINT RightUpLeg
		{
			OFFSET -1.305520 -1.794630 0.839290
			CHANNELS 3 Zrotation Yrotation Xrotation
			JOINT RightLeg
			{
				OFFSET -2.542530 -6.985550 0.000000
				CHANNELS 3 Zrotation Yrotation Xrotation
				JOINT RightFoot
				{
					OFFSET -2.568260 -7.056230 0.000000
					CHANNELS 3 Zrotation Yrotation Xrotation
					JOINT RightToeBase
					{
						OFFSET -0.164730 -0.452590 2.363150
						CHANNELS 3 Zrotation Yrotation Xrotation
						End Site
						{
							OFFSET 0.000000 0.000000 0.000000
						}
					}
				}
			}
		}
	}
}
MOTION
Frames: 22
Frame Time: 0.008333
1.538349 17.578078 1.112092 16.223699 65.450783 51.337049 -6.816644 -0.343143 4.089984 0.771927 -14.696841 -57.651890 -0.493540 0.605817 27.507184 1.251545 8.048801 13.264182 3.486100 0.000000 -45.172300 11.979620 -1.336351 0.957354 9.334286 8.597213 -19.633032 0.291118 -0.972112 22.695231 -1.239485 -6.344611 4.621543 -1.788100 0.000000 -42.920900
1.810020 17.584626 1.205997 16.230984 65.615023 51.427719 -6.777894 -0.243408 4.386134 1.087013 -14.568620 -57.594412 -0.864674 0.320979 22.378685 0.990255 7.072191 14.694757 3.364200 -0.000001 -46.089700 11.992825 -1.390349 0.783969 9.636648 8.346525 -18.957529 0.220585 -1.052407 24.078092 -1.390908 -7.151747 4.008942 -1.891000 0.000000 -43.156700
2.082318 17.578740 1.296480 16.096511 65.784972 51.245067 -6.801914 -0.190632 4.558240 1.071985 -14.078542 -57.371069 -1.261115 0.067539 17.712736 0.701377 5.897940 16.376560 3.111400 0.000000 -46.866800 11.976039 -1.457824 0.593606 10.038661 8.108012 -18.226585 0.158953 -1.161290 25.896385 -1.544220 -7.930092 3.065101 -1.923499 0.000000 -43.452000
2.354587 17.560630 1.383609 15.827620 65.925779 50.783692 -6.878117 -0.186834 4.588190 0.654444 -13.224950 -57.028006 -1.673765 -0.134040 13.739063 0.390845 4.444668 18.171755 2.652400 0.000000 -47.498300 11.941835 -1.539898 0.394978 10.490443 7.877476 -17.443288 0.099686 -1.301457 28.126630 -1.694776 -8.663093 1.891728 -1.883900 0.000000 -43.764100
2.626264 17.530578 1.467864 15.470010 66.008058 50.096225 -6.986582 -0.220265 4.484546 -0.158499 -12.074741 -56.629343 -2.085831 -0.272732 10.613814 0.076826 2.718534 19.912245 1.961500 -0.000000 -48.070900 11.907865 -1.633962 0.197747 10.928520 7.648925 -16.638021 0.034819 -1.473355 30.737968 -1.838963 -9.345032 0.586759 -1.779100 0.000000 -44.056701
2.896907 17.488769 1.550278 15.110033 66.007883 49.295861 -7.099796 -0.269059 4.288520 -1.233501 -10.797108 -56.202857 -2.467609 -0.355393 8.337076 -0.207466 0.903562 21.452906 1.124100 0.000000 -48.672100 11.897976 -1.732604 0.007836 11.273707 7.408874 -15.867166 -0.043619 -1.675961 33.699535 -1.973254 -9.973186 -0.768223 -1.621000 0.000000 -44.302600
3.166581 17.435153 1.630844 14.742510 65.928578 48.421265 -7.210044 -0.318405 4.039806 -2.398587 -9.496648 -55.812962 -2.791630 -0.382416 6.939226 -0.444702 -0.856402 22.586977 0.235300 0.000000 -49.186100 11.912100 -1.835776 -0.161380 11.522790 7.195837 -15.177728 -0.140949 -1.903341 36.963226 -2.101466 -10.590580 -2.100116 -1.432500 0.000001 -44.481900
3.435301 17.369562 1.710208 14.400194 65.770114 47.547011 -7.306962 -0.353694 3.789320 -3.457124 -8.329853 -55.460348 -3.031916 -0.365724 6.329357 -0.617203 -2.311071 23.187248 -0.531300 0.000000 -49.649700 11.958206 -1.939377 -0.305037 11.654467 7.018378 -14.623972 -0.261264 -2.150853 40.494810 -2.224315 -11.215718 -3.365844 -1.227200 -0.000001 -44.572100
3.703061 17.292002 1.789273 14.129955 65.532433 46.755317 -7.381898 -0.365483 3.587190 -4.235364 -7.460380 -55.104919 -3.169589 -0.323457 6.353244 -0.711959 -3.199947 23.194907 -0.995499 -0.000000 -50.218800 12.045485 -2.037942 -0.424060 11.641810 6.869142 -14.254740 -0.407444 -2.414586 44.265309 -2.341060 -11.854036 -4.542862 -1.013200 -0.000001 -44.556700
3.969898 17.202489 1.867999 13.908231 65.226966 46.038694 -7.440212 -0.354644 3.442341 -4.717357 -6.885106 -54.785309 -3.212434 -0.252883 7.039871 -0.743473 -3.549934 22.473418 -1.142400 0.000000 -50.728100 12.164767 -2.133658 -0.515293 11.511612 6.756999 -14.080077 -0.580740 -2.689077 48.233987 -2.453916 -12.523573 -5.615940 -0.799101 0.000000 -44.426800
4.235946 17.101393 1.946903 13.759753 64.856058 45.433020 -7.479144 -0.321441 3.366533 -4.916584 -6.631565 -54.515744 -3.171145 -0.160453 8.348778 -0.717055 -3.383909 20.988186 -0.987900 0.000000 -51.194400 12.315956 -2.224802 -0.580405 11.254546 6.661359 -14.119367 -0.782782 -2.970617 52.370860 -2.560732 -13.211444 -6.584384 -0.587000 0.000001 -44.181900
4.500995 16.989429 2.026126 13.694372 64.423173 44.940699 -7.497984 -0.270901 3.346970 -4.929542 -6.650403 -54.333635 -3.067933 -0.044494 10.302173 -0.643099 -2.860601 18.718211 -0.644299 -0.000000 -51.528400 12.494270 -2.311164 -0.623084 10.869821 6.559415 -14.364228 -1.014635 -3.256292 56.637538 -2.658953 -13.898017 -7.451614 -0.378800 0.000000 -43.833400
4.764703 16.867876 2.105643 13.718098 63.931521 44.552409 -7.497633 -0.210780 3.361521 -4.871341 -6.866071 -54.269617 -2.927351 0.098369 12.908025 -0.529549 -2.163784 15.708981 -0.247600 0.000000 -51.653600 12.693869 -2.392195 -0.648548 10.356637 6.428086 -14.795103 -1.277204 -3.544088 60.991942 -2.745099 -14.554071 -8.223825 -0.176699 0.000000 -43.401200
5.026620 16.738473 2.184984 13.807092 63.389329 44.228916 -7.485785 -0.151903 3.382093 -4.841870 -7.178229 -54.344116 -2.772698 0.274124 16.149224 -0.384734 -1.469367 12.066135 0.081400 0.000000 -51.474600 12.903849 -2.467709 -0.661813 9.733047 6.257404 -15.383301 -1.570972 -3.831679 65.386092 -2.816264 -15.149901 -8.906967 0.016300 0.000000 -42.913000
5.285769 16.603658 2.264242 13.976874 62.801730 43.968020 -7.465675 -0.100081 3.388672 -4.907781 -7.538773 -54.514292 -2.621449 0.479919 19.892438 -0.211100 -0.838424 7.994611 0.293200 -0.000000 -51.086000 13.123832 -2.533741 -0.673216 8.987308 6.028880 -16.102501 -1.895495 -4.119682 69.770919 -2.867106 -15.639977 -9.513305 0.197900 -0.000000 -42.397400
5.541113 16.466462 2.343060 14.208802 62.182629 43.743473 -7.447770 -0.059360 3.364634 -5.102930 -7.888331 -54.739684 -2.485930 0.713606 23.983441 -0.016634 -0.311006 3.712040 0.371500 0.000000 -50.553500 13.347713 -2.587042 -0.689616 8.135193 5.744564 -16.932074 -2.249424 -4.407197 74.093871 -2.894092 -15.988085 -10.053478 0.364800 0.000000 -41.884499
5.791422 16.330287 2.421537 14.504732 61.546562 43.554941 -7.437915 -0.027230 3.303067 -5.441567 -8.200704 -54.960013 -2.372254 0.966561 28.219323 0.190514 0.127750 -0.553650 0.336199 0.000000 -50.039400 13.575343 -2.622359 -0.717971 7.179325 5.407257 -17.863221 -2.630043 -4.694410 78.302789 -2.893111 -16.155862 -10.542429 0.514300 0.000000 -41.395899
6.035476 16.198868 2.499889 14.861778 60.908168 43.403260 -7.440331 0.001755 3.202833 -5.922244 -8.456104 -55.121181 -2.281205 1.228075 32.403969 0.400593 0.501036 -4.609181 0.217500 -0.000000 -49.709800 13.805626 -2.634065 -0.762070 6.129152 5.028543 -18.895156 -3.033329 -4.980549 82.345560 -2.861374 -16.115254 -10.993484 0.643800 -0.000000 -40.957600
6.272096 16.075522 2.578523 15.276087 60.280094 43.290753 -7.454307 0.033391 3.065625 -6.535752 -8.641553 -55.179128 -2.210309 1.486603 36.372607 0.604461 0.831015 -8.314436 0.045201 -0.000000 -49.684701 14.038583 -2.616518 -0.823070 4.995705 4.623171 -20.032935 -3.453740 -5.265023 86.175171 -2.797158 -15.848349 -11.424234 0.752100 -0.000000 -40.565900
6.500553 15.963450 2.657792 15.727924 59.671675 43.204704 -7.479282 0.071328 2.895068 -7.255846 -8.743390 -55.097344 -2.155179 1.731168 39.997555 0.794893 1.134159 -11.583475 -0.155399 0.000000 -50.005700 14.269501 -2.564754 -0.898293 3.804803 4.213099 -21.280464 -3.883970 -5.544938 89.745030 -2.701458 -15.357878 -11.843507 0.836900 0.000000 -40.236799
6.720431 15.865084 2.738083 16.190701 59.089668 43.125129 -7.512989 0.116650 2.695323 -8.045892 -8.752559 -54.845468 -2.112095 1.951837 43.188491 0.967494 1.423966 -14.380686 -0.366000 -0.000000 -50.627900 14.492453 -2.474713 -0.983149 2.589733 3.819968 -22.640281 -4.314808 -5.816576 93.014888 -2.577352 -14.663267 -12.257811 0.897000 0.000000 -39.972000
6.931889 15.782278 2.819748 16.630815 58.539019 43.024220 -7.553830 0.168303 2.471089 -8.860135 -8.664009 -54.396336 -2.079013 2.140213 45.885669 1.120597 1.711834 -16.710606 -0.574600 0.000001 -51.438400 14.699367 -2.343864 -1.071698 1.391915 3.463675 -24.110135 -4.734880 -6.074802 95.948162 -2.430548 -13.802989 -12.666739 0.931599 0.000000 -39.779400
